<svg width="133" height="129" viewBox="0 0 133 129" fill="none" xmlns="http://www.w3.org/2000/svg">
<path d="M0.613636 62.8317L8.34091 16.2862H27.5682C31.053 16.2862 33.9545 16.9605 36.2727 18.3089C38.5909 19.6574 40.2348 21.5438 41.2045 23.968C42.1742 26.3923 42.3939 29.2029 41.8636 32.3998C41.3485 35.6271 40.1894 38.4377 38.3864 40.8317C36.5985 43.2256 34.2955 45.0817 31.4773 46.3998C28.6591 47.718 25.4545 48.3771 21.8636 48.3771H10.0227L11.5 39.5135H21.2727C22.9848 39.5135 24.4621 39.218 25.7045 38.6271C26.9621 38.0362 27.9697 37.2105 28.7273 36.1498C29.4848 35.0892 29.9848 33.8392 30.2273 32.3998C30.4545 30.9605 30.3636 29.718 29.9545 28.6726C29.5455 27.612 28.8106 26.7938 27.75 26.218C26.7045 25.6423 25.3409 25.3544 23.6591 25.3544H18.1136L11.8636 62.8317H0.613636ZM46.7443 62.8317H34.6534L58.0852 16.2862H73.0625L81.0398 62.8317H68.9489L63.8352 28.0135H63.4716L46.7443 62.8317ZM48.1989 44.5135H73.4716L72.017 53.0589H46.7443L48.1989 44.5135ZM103.506 62.8317H86.0511L93.7784 16.2862H110.71C115.438 16.2862 119.377 17.2483 122.528 19.1726C125.695 21.0817 127.93 23.8241 129.233 27.3998C130.551 30.9605 130.801 35.2029 129.983 40.1271C129.195 44.8847 127.612 48.9605 125.233 52.3544C122.869 55.7483 119.839 58.3468 116.142 60.1498C112.445 61.9377 108.233 62.8317 103.506 62.8317ZM98.8693 53.2408H104.21C106.816 53.2408 109.119 52.7711 111.119 51.8317C113.134 50.8771 114.801 49.3544 116.119 47.2635C117.438 45.1574 118.377 42.3923 118.938 38.968C119.483 35.6953 119.46 33.112 118.869 31.218C118.294 29.3089 117.172 27.9453 115.506 27.1271C113.854 26.2938 111.695 25.8771 109.028 25.8771H103.438L98.8693 53.2408Z" fill="white"/>
<path d="M10.08 110.529C9.07733 110.529 8.096 110.443 7.136 110.273C6.176 110.102 5.28 109.857 4.448 109.537C3.63733 109.217 2.90133 108.811 2.24 108.321C1.984 108.129 1.80267 107.915 1.696 107.681C1.61067 107.425 1.58933 107.179 1.632 106.945C1.696 106.689 1.80267 106.475 1.952 106.305C2.12267 106.134 2.32533 106.038 2.56 106.017C2.79467 105.995 3.05067 106.07 3.328 106.241C4.288 106.923 5.312 107.425 6.4 107.745C7.488 108.043 8.71467 108.193 10.08 108.193C12 108.193 13.4187 107.841 14.336 107.137C15.2747 106.411 15.744 105.462 15.744 104.289C15.744 103.329 15.4027 102.582 14.72 102.049C14.0587 101.494 12.9387 101.057 11.36 100.737L8.032 100.065C6.02667 99.6379 4.52267 98.9445 3.52 97.9845C2.53867 97.0032 2.048 95.7019 2.048 94.0805C2.048 93.0779 2.25067 92.1712 2.656 91.3605C3.06133 90.5285 3.62667 89.8245 4.352 89.2485C5.07733 88.6512 5.94133 88.1925 6.944 87.8725C7.94667 87.5525 9.056 87.3925 10.272 87.3925C11.616 87.3925 12.864 87.5845 14.016 87.9685C15.1893 88.3312 16.2453 88.8859 17.184 89.6325C17.4187 89.8245 17.5787 90.0485 17.664 90.3045C17.7493 90.5392 17.76 90.7739 17.696 91.0085C17.632 91.2219 17.5147 91.4032 17.344 91.5525C17.1947 91.7019 16.992 91.7872 16.736 91.8085C16.5013 91.8299 16.2347 91.7445 15.936 91.5525C15.0827 90.9125 14.1973 90.4539 13.28 90.1765C12.3627 89.8779 11.3493 89.7285 10.24 89.7285C9.10933 89.7285 8.128 89.8992 7.296 90.2405C6.48533 90.5819 5.84533 91.0832 5.376 91.7445C4.928 92.3845 4.704 93.1312 4.704 93.9845C4.704 95.0085 5.01333 95.8192 5.632 96.4165C6.272 97.0139 7.30667 97.4512 8.736 97.7285L12.064 98.4325C14.2187 98.8805 15.808 99.5632 16.832 100.481C17.8773 101.377 18.4 102.603 18.4 104.161C18.4 105.099 18.208 105.963 17.824 106.753C17.44 107.542 16.8853 108.225 16.16 108.801C15.4347 109.355 14.56 109.782 13.536 110.081C12.512 110.379 11.36 110.529 10.08 110.529ZM35.5708 110.465C35.1654 110.465 34.8454 110.347 34.6108 110.113C34.3761 109.857 34.2587 109.515 34.2587 109.089V89.9525H27.0587C26.6747 89.9525 26.3761 89.8459 26.1627 89.6325C25.9494 89.4192 25.8427 89.1419 25.8427 88.8005C25.8427 88.4379 25.9494 88.1605 26.1627 87.9685C26.3761 87.7765 26.6747 87.6805 27.0587 87.6805H44.1147C44.4988 87.6805 44.7974 87.7765 45.0107 87.9685C45.2241 88.1605 45.3307 88.4379 45.3307 88.8005C45.3307 89.1632 45.2241 89.4512 45.0107 89.6645C44.7974 89.8565 44.4988 89.9525 44.1147 89.9525H36.9148V109.089C36.9148 109.515 36.7974 109.857 36.5627 110.113C36.3494 110.347 36.0188 110.465 35.5708 110.465ZM62.7585 110.529C60.6678 110.529 58.8438 110.059 57.2865 109.121C55.7505 108.161 54.5558 106.817 53.7025 105.089C52.8705 103.361 52.4545 101.313 52.4545 98.9445C52.4545 97.1525 52.6892 95.5525 53.1585 94.1445C53.6492 92.7152 54.3425 91.5099 55.2385 90.5285C56.1345 89.5259 57.2118 88.7579 58.4705 88.2245C59.7505 87.6699 61.1798 87.3925 62.7585 87.3925C64.8918 87.3925 66.7265 87.8619 68.2625 88.8005C69.8198 89.7392 71.0145 91.0725 71.8465 92.8005C72.6998 94.5072 73.1265 96.5445 73.1265 98.9125C73.1265 100.705 72.8812 102.315 72.3905 103.745C71.8998 105.174 71.2065 106.39 70.3105 107.393C69.4145 108.395 68.3265 109.174 67.0465 109.729C65.7878 110.262 64.3585 110.529 62.7585 110.529ZM62.7585 108.193C64.3798 108.193 65.7452 107.83 66.8545 107.105C67.9852 106.379 68.8492 105.323 69.4465 103.937C70.0438 102.55 70.3425 100.886 70.3425 98.9445C70.3425 96.0219 69.6812 93.7605 68.3585 92.1605C67.0572 90.5392 65.1905 89.7285 62.7585 89.7285C61.1798 89.7285 59.8252 90.0912 58.6945 90.8165C57.5852 91.5419 56.7318 92.5979 56.1345 93.9845C55.5372 95.3499 55.2385 97.0032 55.2385 98.9445C55.2385 101.846 55.8998 104.118 57.2225 105.761C58.5452 107.382 60.3905 108.193 62.7585 108.193ZM85.8497 110.465C85.4231 110.465 85.0924 110.347 84.8577 110.113C84.6444 109.857 84.5377 109.515 84.5377 109.089V89.0245C84.5377 88.5765 84.6551 88.2459 84.8897 88.0325C85.1244 87.7979 85.4551 87.6805 85.8817 87.6805H93.4657C95.8764 87.6805 97.7324 88.2459 99.0337 89.3765C100.335 90.5072 100.986 92.1179 100.986 94.2085C100.986 95.5312 100.687 96.6832 100.09 97.6645C99.5137 98.6245 98.6604 99.3605 97.5297 99.8725C96.3991 100.363 95.0444 100.609 93.4657 100.609L93.7857 100.193H94.4257C95.2577 100.193 95.9831 100.406 96.6017 100.833C97.2204 101.259 97.7857 101.942 98.2977 102.881L101.37 108.609C101.54 108.907 101.615 109.206 101.594 109.505C101.594 109.782 101.498 110.017 101.306 110.209C101.114 110.379 100.836 110.465 100.474 110.465C100.111 110.465 99.8124 110.379 99.5777 110.209C99.3431 110.038 99.1404 109.793 98.9697 109.473L95.4817 103.009C94.9911 102.091 94.4257 101.483 93.7857 101.185C93.1457 100.865 92.3031 100.705 91.2577 100.705H87.1617V109.089C87.1617 109.515 87.0551 109.857 86.8417 110.113C86.6284 110.347 86.2977 110.465 85.8497 110.465ZM87.1617 98.6245H93.0817C94.8311 98.6245 96.1537 98.2619 97.0497 97.5365C97.9457 96.7899 98.3937 95.6805 98.3937 94.2085C98.3937 92.7792 97.9457 91.7019 97.0497 90.9765C96.1537 90.2299 94.8311 89.8565 93.0817 89.8565H87.1617V98.6245ZM114.104 110.241C113.635 110.241 113.272 110.123 113.016 109.889C112.781 109.633 112.664 109.27 112.664 108.801V89.1205C112.664 88.6512 112.781 88.2992 113.016 88.0645C113.272 87.8085 113.635 87.6805 114.104 87.6805H126.008C126.371 87.6805 126.648 87.7765 126.84 87.9685C127.032 88.1605 127.128 88.4272 127.128 88.7685C127.128 89.1312 127.032 89.4085 126.84 89.6005C126.648 89.7925 126.371 89.8885 126.008 89.8885H115.224V97.6965H125.336C125.699 97.6965 125.976 97.7925 126.168 97.9845C126.36 98.1552 126.456 98.4219 126.456 98.7845C126.456 99.1472 126.36 99.4245 126.168 99.6165C125.976 99.8085 125.699 99.9045 125.336 99.9045H115.224V108.033H126.008C126.371 108.033 126.648 108.129 126.84 108.321C127.032 108.513 127.128 108.779 127.128 109.121C127.128 109.483 127.032 109.761 126.84 109.953C126.648 110.145 126.371 110.241 126.008 110.241H114.104Z" fill="white"/>
</svg>
